{
    "asset" : {
        "generator" : "Khronos glTF Blender I/O v3.4.50",
        "version" : "2.0"
    },
    "scene" : 0,
    "scenes" : [
        {
            "name" : "Scene",
            "nodes" : [
                4
            ]
        }
    ],
    "nodes" : [
        {
            "mesh" : 0,
            "name" : "Object_6"
        },
        {
            "children" : [
                0
            ],
            "name" : "Hoodie_0",
            "rotation" : [
                0.715237557888031,
                -0.02169206365942955,
                -0.013417106121778488,
                0.6984158754348755
            ],
            "scale" : [
                0.05461374297738075,
                0.054613739252090454,
                0.05461373180150986
            ],
            "translation" : [
                -0.0101165771484375,
                -0.20035314559936523,
                0.06457781791687012
            ]
        },
        {
            "children" : [
                1
            ],
            "name" : "GLTF_SceneRootNode",
            "rotation" : [
                0.70710688829422,
                0,
                0,
                0.7071066498756409
            ]
        },
        {
            "children" : [
                2
            ],
            "name" : "root"
        },
        {
            "children" : [
                3
            ],
            "name" : "Sketchfab_model",
            "rotation" : [
                -0.7071069478988647,
                0,
                0,
                0.7071066498756409
            ],
            "scale" : [
                0.09682153910398483,
                0.09682156145572662,
                0.09682156145572662
            ],
            "translation" : [
                0.01977289281785488,
                0.22025668621063232,
                0
            ]
        }
    ],
    "materials" : [
        {
            "doubleSided" : true,
            "name" : "Material.001",
            "pbrMetallicRoughness" : {
                "baseColorFactor" : [
                    0,
                    0,
                    0,
                    1
                ],
                "metallicFactor" : 0
            }
        }
    ],
    "meshes" : [
        {
            "name" : "Object_2.001",
            "primitives" : [
                {
                    "attributes" : {
                        "POSITION" : 0,
                        "TEXCOORD_0" : 1,
                        "NORMAL" : 2
                    },
                    "indices" : 3,
                    "material" : 0
                }
            ]
        }
    ],
    "accessors" : [
        {
            "bufferView" : 0,
            "componentType" : 5126,
            "count" : 127288,
            "max" : [
                64.02981567382812,
                21.803983688354492,
                36.737693786621094
            ],
            "min" : [
                -63.678104400634766,
                -22.31467628479004,
                -42.4640998840332
            ],
            "type" : "VEC3"
        },
        {
            "bufferView" : 1,
            "componentType" : 5126,
            "count" : 127288,
            "type" : "VEC2"
        },
        {
            "bufferView" : 2,
            "componentType" : 5126,
            "count" : 127288,
            "type" : "VEC3"
        },
        {
            "bufferView" : 3,
            "componentType" : 5125,
            "count" : 743397,
            "type" : "SCALAR"
        }
    ],
    "bufferViews" : [
        {
            "buffer" : 0,
            "byteLength" : 1527456,
            "byteOffset" : 0,
            "target" : 34962
        },
        {
            "buffer" : 0,
            "byteLength" : 1018304,
            "byteOffset" : 1527456,
            "target" : 34962
        },
        {
            "buffer" : 0,
            "byteLength" : 1527456,
            "byteOffset" : 2545760,
            "target" : 34962
        },
        {
            "buffer" : 0,
            "byteLength" : 2973588,
            "byteOffset" : 4073216,
            "target" : 34963
        }
    ],
    "buffers" : [
        {
            "byteLength" : 7046804,
            "uri" : "shirt-hoodie.bin"
        }
    ]
}
