{
    "asset" : {
        "generator" : "Khronos glTF Blender I/O v3.4.50",
        "version" : "2.0"
    },
    "scene" : 0,
    "scenes" : [
        {
            "name" : "Scene",
            "nodes" : [
                11
            ]
        }
    ],
    "nodes" : [
        {
            "name" : "Body_Back_Node_5"
        },
        {
            "name" : "Body_Front_Node_4"
        },
        {
            "mesh" : 0,
            "name" : "Object_6"
        },
        {
            "children" : [
                2
            ],
            "name" : "Ribbing_Node_2"
        },
        {
            "name" : "Ribbing_Node_3"
        },
        {
            "name" : "Sleeves_Node_6"
        },
        {
            "name" : "Sleeves_Node_7"
        },
        {
            "children" : [
                0,
                1,
                3,
                4,
                5,
                6
            ],
            "name" : "Cloth_1"
        },
        {
            "children" : [
                7
            ],
            "name" : "T_shirt_gltf.zip_Scene_Node_0"
        },
        {
            "children" : [
                8
            ],
            "name" : "GLTF_SceneRootNode",
            "rotation" : [
                0.70710688829422,
                0,
                0,
                0.7071066498756409
            ]
        },
        {
            "children" : [
                9
            ],
            "name" : "root"
        },
        {
            "children" : [
                10
            ],
            "name" : "Sketchfab_model",
            "rotation" : [
                -0.7151911854743958,
                -0.18296144902706146,
                -0.1690702736377716,
                0.6530252695083618
            ]
        }
    ],
    "materials" : [
        {
            "name" : "Body_FRONT_2664",
            "pbrMetallicRoughness" : {
                "metallicFactor" : 0,
                "roughnessFactor" : 0.5
            }
        },
        {
            "name" : "Sleeves_FRONT_2669",
            "pbrMetallicRoughness" : {
                "metallicFactor" : 0,
                "roughnessFactor" : 0.5
            }
        }
    ],
    "meshes" : [
        {
            "name" : "Object_0",
            "primitives" : [
                {
                    "attributes" : {
                        "POSITION" : 0,
                        "TEXCOORD_0" : 1,
                        "NORMAL" : 2
                    },
                    "indices" : 3,
                    "material" : 0
                },
                {
                    "attributes" : {
                        "POSITION" : 4,
                        "TEXCOORD_0" : 5,
                        "NORMAL" : 6
                    },
                    "indices" : 7,
                    "material" : 1
                }
            ]
        }
    ],
    "accessors" : [
        {
            "bufferView" : 0,
            "componentType" : 5126,
            "count" : 1527,
            "max" : [
                0.08620777726173401,
                1.6379107236862183,
                0.046397022902965546
            ],
            "min" : [
                -0.08712038397789001,
                1.5608042478561401,
                -0.08708199858665466
            ],
            "type" : "VEC3"
        },
        {
            "bufferView" : 1,
            "componentType" : 5126,
            "count" : 1527,
            "type" : "VEC2"
        },
        {
            "bufferView" : 2,
            "componentType" : 5126,
            "count" : 1527,
            "type" : "VEC3"
        },
        {
            "bufferView" : 3,
            "componentType" : 5123,
            "count" : 6357,
            "type" : "SCALAR"
        },
        {
            "bufferView" : 4,
            "componentType" : 5126,
            "count" : 11597,
            "max" : [
                0.32585787773132324,
                1.5755069255828857,
                0.0434478260576725
            ],
            "min" : [
                -0.3271026611328125,
                1.3555172681808472,
                -0.11446480453014374
            ],
            "type" : "VEC3"
        },
        {
            "bufferView" : 5,
            "componentType" : 5126,
            "count" : 11597,
            "type" : "VEC2"
        },
        {
            "bufferView" : 6,
            "componentType" : 5126,
            "count" : 11597,
            "type" : "VEC3"
        },
        {
            "bufferView" : 7,
            "componentType" : 5123,
            "count" : 64596,
            "type" : "SCALAR"
        }
    ],
    "bufferViews" : [
        {
            "buffer" : 0,
            "byteLength" : 18324,
            "byteOffset" : 0,
            "target" : 34962
        },
        {
            "buffer" : 0,
            "byteLength" : 12216,
            "byteOffset" : 18324,
            "target" : 34962
        },
        {
            "buffer" : 0,
            "byteLength" : 18324,
            "byteOffset" : 30540,
            "target" : 34962
        },
        {
            "buffer" : 0,
            "byteLength" : 12714,
            "byteOffset" : 48864,
            "target" : 34963
        },
        {
            "buffer" : 0,
            "byteLength" : 139164,
            "byteOffset" : 61580,
            "target" : 34962
        },
        {
            "buffer" : 0,
            "byteLength" : 92776,
            "byteOffset" : 200744,
            "target" : 34962
        },
        {
            "buffer" : 0,
            "byteLength" : 139164,
            "byteOffset" : 293520,
            "target" : 34962
        },
        {
            "buffer" : 0,
            "byteLength" : 129192,
            "byteOffset" : 432684,
            "target" : 34963
        }
    ],
    "buffers" : [
        {
            "byteLength" : 561876,
            "uri" : "tshirt2.bin"
        }
    ]
}
