{
    "asset" : {
        "generator" : "Khronos glTF Blender I/O v3.4.50",
        "version" : "2.0"
    },
    "scene" : 0,
    "scenes" : [
        {
            "name" : "Scene",
            "nodes" : [
                16
            ]
        }
    ],
    "nodes" : [
        {
            "mesh" : 0,
            "name" : "Object_15"
        },
        {
            "mesh" : 1,
            "name" : "Object_16"
        },
        {
            "children" : [
                0,
                1
            ],
            "name" : "Body_Back_Node_5"
        },
        {
            "mesh" : 2,
            "name" : "Object_10"
        },
        {
            "mesh" : 3,
            "name" : "Object_11"
        },
        {
            "mesh" : 4,
            "name" : "Object_12"
        },
        {
            "children" : [
                3,
                4,
                5
            ],
            "name" : "Body_Front_Node_4"
        },
        {
            "mesh" : 5,
            "name" : "Object_6"
        },
        {
            "children" : [
                7
            ],
            "name" : "Ribbing_Node_2"
        },
        {
            "name" : "Ribbing_Node_3"
        },
        {
            "name" : "Sleeves_Node_6"
        },
        {
            "name" : "Sleeves_Node_7"
        },
        {
            "children" : [
                2,
                6,
                8,
                9,
                10,
                11
            ],
            "name" : "Cloth_1"
        },
        {
            "children" : [
                12
            ],
            "name" : "T_shirt_gltf.zip_Scene_Node_0"
        },
        {
            "children" : [
                13
            ],
            "name" : "GLTF_SceneRootNode",
            "rotation" : [
                0.70710688829422,
                0,
                0,
                0.7071066498756409
            ]
        },
        {
            "children" : [
                14
            ],
            "name" : "root"
        },
        {
            "children" : [
                15
            ],
            "name" : "Sketchfab_model",
            "rotation" : [
                -0.7151911854743958,
                -0.18296144902706146,
                -0.1690702736377716,
                0.6530252695083618
            ]
        }
    ],
    "materials" : [
        {
            "name" : "Body_FRONT_2664",
            "pbrMetallicRoughness" : {
                "metallicFactor" : 0,
                "roughnessFactor" : 0.5
            }
        },
        {
            "name" : "Sleeves_FRONT_2669",
            "pbrMetallicRoughness" : {
                "metallicFactor" : 0,
                "roughnessFactor" : 0.5
            }
        }
    ],
    "meshes" : [
        {
            "name" : "Object_6",
            "primitives" : [
                {
                    "attributes" : {
                        "POSITION" : 0,
                        "TEXCOORD_0" : 1,
                        "NORMAL" : 2
                    },
                    "indices" : 3,
                    "material" : 0
                }
            ]
        },
        {
            "name" : "Object_7",
            "primitives" : [
                {
                    "attributes" : {
                        "POSITION" : 4,
                        "TEXCOORD_0" : 5,
                        "NORMAL" : 6
                    },
                    "indices" : 7,
                    "material" : 0
                }
            ]
        },
        {
            "name" : "Object_2",
            "primitives" : [
                {
                    "attributes" : {
                        "POSITION" : 8,
                        "TEXCOORD_0" : 9,
                        "NORMAL" : 10
                    },
                    "indices" : 11,
                    "material" : 0
                }
            ]
        },
        {
            "name" : "Object_3",
            "primitives" : [
                {
                    "attributes" : {
                        "POSITION" : 12,
                        "TEXCOORD_0" : 13,
                        "NORMAL" : 14
                    },
                    "indices" : 15,
                    "material" : 0
                }
            ]
        },
        {
            "name" : "Object_4",
            "primitives" : [
                {
                    "attributes" : {
                        "POSITION" : 16,
                        "TEXCOORD_0" : 17,
                        "NORMAL" : 18
                    },
                    "indices" : 19,
                    "material" : 0
                }
            ]
        },
        {
            "name" : "Object_0",
            "primitives" : [
                {
                    "attributes" : {
                        "POSITION" : 20,
                        "TEXCOORD_0" : 21,
                        "NORMAL" : 22
                    },
                    "indices" : 23,
                    "material" : 0
                },
                {
                    "attributes" : {
                        "POSITION" : 24,
                        "TEXCOORD_0" : 25,
                        "NORMAL" : 26
                    },
                    "indices" : 27,
                    "material" : 1
                }
            ]
        }
    ],
    "accessors" : [
        {
            "bufferView" : 0,
            "componentType" : 5126,
            "count" : 24268,
            "max" : [
                0.2076701521873474,
                1.6286565065383911,
                0.0087042897939682
            ],
            "min" : [
                -0.20746342837810516,
                0.9363815188407898,
                -0.14884860813617706
            ],
            "type" : "VEC3"
        },
        {
            "bufferView" : 1,
            "componentType" : 5126,
            "count" : 24268,
            "type" : "VEC2"
        },
        {
            "bufferView" : 2,
            "componentType" : 5126,
            "count" : 24268,
            "type" : "VEC3"
        },
        {
            "bufferView" : 3,
            "componentType" : 5123,
            "count" : 144126,
            "type" : "SCALAR"
        },
        {
            "bufferView" : 4,
            "componentType" : 5126,
            "count" : 3540,
            "max" : [
                0.2079797089099884,
                1.629104495048523,
                0.0087042897939682
            ],
            "min" : [
                -0.20775645971298218,
                0.9362870454788208,
                -0.12620921432971954
            ],
            "type" : "VEC3"
        },
        {
            "bufferView" : 5,
            "componentType" : 5126,
            "count" : 3540,
            "type" : "VEC2"
        },
        {
            "bufferView" : 6,
            "componentType" : 5126,
            "count" : 3540,
            "type" : "VEC3"
        },
        {
            "bufferView" : 7,
            "componentType" : 5123,
            "count" : 17712,
            "type" : "SCALAR"
        },
        {
            "bufferView" : 8,
            "componentType" : 5126,
            "count" : 37913,
            "max" : [
                0.20797967910766602,
                1.629104495048523,
                0.1597357988357544
            ],
            "min" : [
                -0.20776261389255524,
                0.9362865090370178,
                -0.14934852719306946
            ],
            "type" : "VEC3"
        },
        {
            "bufferView" : 9,
            "componentType" : 5126,
            "count" : 37913,
            "type" : "VEC2"
        },
        {
            "bufferView" : 10,
            "componentType" : 5126,
            "count" : 37913,
            "type" : "VEC3"
        },
        {
            "bufferView" : 11,
            "componentType" : 5123,
            "count" : 224592,
            "type" : "SCALAR"
        },
        {
            "bufferView" : 12,
            "componentType" : 5126,
            "count" : 22323,
            "max" : [
                0.20620815455913544,
                1.6272343397140503,
                0.15923799574375153
            ],
            "min" : [
                -0.2074778825044632,
                0.9531122446060181,
                -0.042154423892498016
            ],
            "type" : "VEC3"
        },
        {
            "bufferView" : 13,
            "componentType" : 5126,
            "count" : 22323,
            "type" : "VEC2"
        },
        {
            "bufferView" : 14,
            "componentType" : 5126,
            "count" : 22323,
            "type" : "VEC3"
        },
        {
            "bufferView" : 15,
            "componentType" : 5123,
            "count" : 132402,
            "type" : "SCALAR"
        },
        {
            "bufferView" : 16,
            "componentType" : 5126,
            "count" : 3691,
            "max" : [
                0.2065085917711258,
                1.6276650428771973,
                0.1597357988357544
            ],
            "min" : [
                -0.20776261389255524,
                0.9531122446060181,
                -0.042154423892498016
            ],
            "type" : "VEC3"
        },
        {
            "bufferView" : 17,
            "componentType" : 5126,
            "count" : 3691,
            "type" : "VEC2"
        },
        {
            "bufferView" : 18,
            "componentType" : 5126,
            "count" : 3691,
            "type" : "VEC3"
        },
        {
            "bufferView" : 19,
            "componentType" : 5123,
            "count" : 18144,
            "type" : "SCALAR"
        },
        {
            "bufferView" : 20,
            "componentType" : 5126,
            "count" : 1527,
            "max" : [
                0.08620777726173401,
                1.6379107236862183,
                0.046397022902965546
            ],
            "min" : [
                -0.08712038397789001,
                1.5608042478561401,
                -0.08708199858665466
            ],
            "type" : "VEC3"
        },
        {
            "bufferView" : 21,
            "componentType" : 5126,
            "count" : 1527,
            "type" : "VEC2"
        },
        {
            "bufferView" : 22,
            "componentType" : 5126,
            "count" : 1527,
            "type" : "VEC3"
        },
        {
            "bufferView" : 23,
            "componentType" : 5123,
            "count" : 6357,
            "type" : "SCALAR"
        },
        {
            "bufferView" : 24,
            "componentType" : 5126,
            "count" : 11597,
            "max" : [
                0.32585787773132324,
                1.5755069255828857,
                0.0434478260576725
            ],
            "min" : [
                -0.3271026611328125,
                1.3555172681808472,
                -0.11446480453014374
            ],
            "type" : "VEC3"
        },
        {
            "bufferView" : 25,
            "componentType" : 5126,
            "count" : 11597,
            "type" : "VEC2"
        },
        {
            "bufferView" : 26,
            "componentType" : 5126,
            "count" : 11597,
            "type" : "VEC3"
        },
        {
            "bufferView" : 27,
            "componentType" : 5123,
            "count" : 64596,
            "type" : "SCALAR"
        }
    ],
    "bufferViews" : [
        {
            "buffer" : 0,
            "byteLength" : 291216,
            "byteOffset" : 0,
            "target" : 34962
        },
        {
            "buffer" : 0,
            "byteLength" : 194144,
            "byteOffset" : 291216,
            "target" : 34962
        },
        {
            "buffer" : 0,
            "byteLength" : 291216,
            "byteOffset" : 485360,
            "target" : 34962
        },
        {
            "buffer" : 0,
            "byteLength" : 288252,
            "byteOffset" : 776576,
            "target" : 34963
        },
        {
            "buffer" : 0,
            "byteLength" : 42480,
            "byteOffset" : 1064828,
            "target" : 34962
        },
        {
            "buffer" : 0,
            "byteLength" : 28320,
            "byteOffset" : 1107308,
            "target" : 34962
        },
        {
            "buffer" : 0,
            "byteLength" : 42480,
            "byteOffset" : 1135628,
            "target" : 34962
        },
        {
            "buffer" : 0,
            "byteLength" : 35424,
            "byteOffset" : 1178108,
            "target" : 34963
        },
        {
            "buffer" : 0,
            "byteLength" : 454956,
            "byteOffset" : 1213532,
            "target" : 34962
        },
        {
            "buffer" : 0,
            "byteLength" : 303304,
            "byteOffset" : 1668488,
            "target" : 34962
        },
        {
            "buffer" : 0,
            "byteLength" : 454956,
            "byteOffset" : 1971792,
            "target" : 34962
        },
        {
            "buffer" : 0,
            "byteLength" : 449184,
            "byteOffset" : 2426748,
            "target" : 34963
        },
        {
            "buffer" : 0,
            "byteLength" : 267876,
            "byteOffset" : 2875932,
            "target" : 34962
        },
        {
            "buffer" : 0,
            "byteLength" : 178584,
            "byteOffset" : 3143808,
            "target" : 34962
        },
        {
            "buffer" : 0,
            "byteLength" : 267876,
            "byteOffset" : 3322392,
            "target" : 34962
        },
        {
            "buffer" : 0,
            "byteLength" : 264804,
            "byteOffset" : 3590268,
            "target" : 34963
        },
        {
            "buffer" : 0,
            "byteLength" : 44292,
            "byteOffset" : 3855072,
            "target" : 34962
        },
        {
            "buffer" : 0,
            "byteLength" : 29528,
            "byteOffset" : 3899364,
            "target" : 34962
        },
        {
            "buffer" : 0,
            "byteLength" : 44292,
            "byteOffset" : 3928892,
            "target" : 34962
        },
        {
            "buffer" : 0,
            "byteLength" : 36288,
            "byteOffset" : 3973184,
            "target" : 34963
        },
        {
            "buffer" : 0,
            "byteLength" : 18324,
            "byteOffset" : 4009472,
            "target" : 34962
        },
        {
            "buffer" : 0,
            "byteLength" : 12216,
            "byteOffset" : 4027796,
            "target" : 34962
        },
        {
            "buffer" : 0,
            "byteLength" : 18324,
            "byteOffset" : 4040012,
            "target" : 34962
        },
        {
            "buffer" : 0,
            "byteLength" : 12714,
            "byteOffset" : 4058336,
            "target" : 34963
        },
        {
            "buffer" : 0,
            "byteLength" : 139164,
            "byteOffset" : 4071052,
            "target" : 34962
        },
        {
            "buffer" : 0,
            "byteLength" : 92776,
            "byteOffset" : 4210216,
            "target" : 34962
        },
        {
            "buffer" : 0,
            "byteLength" : 139164,
            "byteOffset" : 4302992,
            "target" : 34962
        },
        {
            "buffer" : 0,
            "byteLength" : 129192,
            "byteOffset" : 4442156,
            "target" : 34963
        }
    ],
    "buffers" : [
        {
            "byteLength" : 4571348,
            "uri" : "tshirt.bin"
        }
    ]
}
